<svg width="39" height="38" viewBox="0 0 39 38" fill="none" xmlns="http://www.w3.org/2000/svg">
<g clip-path="url(#clip0_149_527)">
<path d="M38.7708 18.9401H13.546M4.64233 18.9401H1M4.64233 18.9401C4.64233 17.7597 5.11126 16.6276 5.94595 15.7929C6.78065 14.9582 7.91273 14.4893 9.09317 14.4893C10.2736 14.4893 11.4057 14.9582 12.2404 15.7929C13.0751 16.6276 13.544 17.7597 13.544 18.9401C13.544 20.1206 13.0751 21.2526 12.2404 22.0873C11.4057 22.922 10.2736 23.391 9.09317 23.391C7.91273 23.391 6.78065 22.922 5.94595 22.0873C5.11126 21.2526 4.64233 20.1206 4.64233 18.9401ZM38.7708 32.4294H27.0353M27.0353 32.4294C27.0353 33.6101 26.5653 34.7435 25.7304 35.5784C24.8955 36.4133 23.7632 36.8823 22.5825 36.8823C21.402 36.8823 20.2699 36.4113 19.4352 35.5766C18.6006 34.7419 18.1316 33.6099 18.1316 32.4294M27.0353 32.4294C27.0353 31.2487 26.5653 30.1174 25.7304 29.2825C24.8955 28.4476 23.7632 27.9786 22.5825 27.9786C21.402 27.9786 20.2699 28.4475 19.4352 29.2822C18.6006 30.1169 18.1316 31.249 18.1316 32.4294M18.1316 32.4294H1M38.7708 5.45083H32.4315M23.5278 5.45083H1M23.5278 5.45083C23.5278 4.2704 23.9967 3.13831 24.8314 2.30362C25.6661 1.46893 26.7981 1 27.9786 1C28.5631 1 29.1418 1.11512 29.6818 1.3388C30.2218 1.56247 30.7125 1.89032 31.1258 2.30362C31.5391 2.71692 31.8669 3.20757 32.0906 3.74757C32.3143 4.28757 32.4294 4.86634 32.4294 5.45083C32.4294 6.03533 32.3143 6.61409 32.0906 7.15409C31.8669 7.69409 31.5391 8.18475 31.1258 8.59805C30.7125 9.01135 30.2218 9.33919 29.6818 9.56287C29.1418 9.78654 28.5631 9.90167 27.9786 9.90167C26.7981 9.90167 25.6661 9.43274 24.8314 8.59805C23.9967 7.76335 23.5278 6.63127 23.5278 5.45083Z" stroke="#8F8F8F" stroke-width="2" stroke-miterlimit="10" stroke-linecap="round"/>
</g>
<defs>
<clipPath id="clip0_149_527">
<rect width="39" height="38" fill="white"/>
</clipPath>
</defs>
</svg>
