<svg width="66" height="66" viewBox="0 0 66 66" fill="none" xmlns="http://www.w3.org/2000/svg">
<path d="M51.7708 31.9401H26.546M17.6423 31.9401H14M17.6423 31.9401C17.6423 30.7597 18.1113 29.6276 18.946 28.7929C19.7806 27.9582 20.9127 27.4893 22.0932 27.4893C23.2736 27.4893 24.4057 27.9582 25.2404 28.7929C26.0751 29.6276 26.544 30.7597 26.544 31.9401C26.544 33.1206 26.0751 34.2526 25.2404 35.0873C24.4057 35.922 23.2736 36.391 22.0932 36.391C20.9127 36.391 19.7806 35.922 18.946 35.0873C18.1113 34.2526 17.6423 33.1206 17.6423 31.9401ZM51.7708 45.4294H40.0353M40.0353 45.4294C40.0353 46.6101 39.5653 47.7435 38.7304 48.5784C37.8955 49.4133 36.7632 49.8823 35.5825 49.8823C34.402 49.8823 33.2699 49.4113 32.4352 48.5766C31.6006 47.7419 31.1316 46.6099 31.1316 45.4294M40.0353 45.4294C40.0353 44.2487 39.5653 43.1174 38.7304 42.2825C37.8955 41.4476 36.7632 40.9786 35.5825 40.9786C34.402 40.9786 33.2699 41.4475 32.4352 42.2822C31.6006 43.1169 31.1316 44.249 31.1316 45.4294M31.1316 45.4294H14M51.7708 18.4508H45.4315M36.5278 18.4508H14M36.5278 18.4508C36.5278 17.2704 36.9967 16.1383 37.8314 15.3036C38.6661 14.4689 39.7981 14 40.9786 14C41.5631 14 42.1418 14.1151 42.6818 14.3388C43.2218 14.5625 43.7125 14.8903 44.1258 15.3036C44.5391 15.7169 44.8669 16.2076 45.0906 16.7476C45.3143 17.2876 45.4294 17.8663 45.4294 18.4508C45.4294 19.0353 45.3143 19.6141 45.0906 20.1541C44.8669 20.6941 44.5391 21.1847 44.1258 21.598C43.7125 22.0113 43.2218 22.3392 42.6818 22.5629C42.1418 22.7865 41.5631 22.9017 40.9786 22.9017C39.7981 22.9017 38.6661 22.4327 37.8314 21.598C36.9967 20.7634 36.5278 19.6313 36.5278 18.4508Z" stroke="#8F8F8F" stroke-width="2" stroke-miterlimit="10" stroke-linecap="round"/>
</svg>
