<svg width="35" height="35" viewBox="0 0 35 35" fill="none" xmlns="http://www.w3.org/2000/svg">
<path d="M30.7227 7.29175C31.586 8.68883 32.0833 10.3338 32.0833 12.094C32.0833 17.1632 27.9562 21.2728 22.8667 21.2728C21.9392 21.2728 19.8246 21.0599 18.7965 20.2053L17.5102 21.4857C16.4383 22.5532 17.2958 22.5532 17.7246 23.4063C17.7246 23.4063 18.7965 24.9011 17.7246 26.3959C17.0815 27.249 15.2804 28.4434 13.2242 26.3959L12.7954 26.8217C12.7954 26.8217 14.0802 28.3165 13.0098 29.8113C12.3667 30.6645 10.6517 31.5176 9.15104 30.0242L7.65187 31.5176C6.62229 32.5428 5.36521 31.9449 4.86646 31.5176L3.57875 30.2372C2.37854 29.0413 3.07854 27.7463 3.57875 27.2476L14.7233 16.1497C14.7233 16.1497 13.6515 14.4434 13.6515 12.0955C13.6515 7.02633 17.7785 2.91675 22.8681 2.91675C24.0625 2.91675 25.2029 3.14279 26.25 3.55404" stroke="#8F8F8F" stroke-width="2" stroke-linecap="round" stroke-linejoin="round"/>
<path d="M26.0821 12.0956C26.0802 12.9462 25.7405 13.7613 25.1378 14.3616C24.5351 14.9618 23.7186 15.2982 22.868 15.2966C22.4466 15.2976 22.0293 15.2155 21.6396 15.0552C21.25 14.8948 20.8958 14.6593 20.5972 14.3621C20.2986 14.0648 20.0615 13.7117 19.8994 13.3228C19.7372 12.9339 19.6533 12.5169 19.6523 12.0956C19.6531 11.6741 19.7369 11.257 19.8989 10.8679C20.061 10.4788 20.2981 10.1255 20.5967 9.82813C20.8953 9.53073 21.2496 9.29508 21.6393 9.13464C22.029 8.9742 22.4465 8.89212 22.868 8.89307C23.2893 8.89231 23.7066 8.97453 24.0962 9.13506C24.4857 9.29559 24.8399 9.53127 25.1383 9.82865C25.4368 10.126 25.6737 10.4793 25.8357 10.8682C25.9976 11.2572 26.0814 11.6742 26.0821 12.0956Z" stroke="#8F8F8F" stroke-width="2"/>
</svg>
