<svg width="28" height="28" viewBox="0 0 28 28" fill="none" xmlns="http://www.w3.org/2000/svg">
<path fill-rule="evenodd" clip-rule="evenodd" d="M16.6986 18.0203C15.1949 19.2767 13.2882 19.8833 11.3702 19.7155C9.45211 19.5477 7.6683 18.6183 6.38508 17.1181C5.10187 15.6179 4.41667 13.6609 4.4702 11.6489C4.52374 9.63689 5.31195 7.7227 6.67295 6.29946C8.03395 4.87621 9.86442 4.05195 11.7884 3.99597C13.7124 3.93999 15.5839 4.65653 17.0185 5.99843C18.453 7.34033 19.3418 9.20572 19.5023 11.2115C19.6627 13.2173 19.0826 15.2111 17.8812 16.7836L23.6334 22.7978C23.7156 22.8779 23.7816 22.9745 23.8273 23.0818C23.873 23.1892 23.8976 23.305 23.8996 23.4225C23.9016 23.54 23.8809 23.6567 23.8388 23.7656C23.7968 23.8746 23.7341 23.9736 23.6547 24.0567C23.5752 24.1398 23.4806 24.2053 23.3764 24.2493C23.2722 24.2933 23.1606 24.3149 23.0483 24.3128C22.9359 24.3107 22.8251 24.285 22.7225 24.2372C22.6198 24.1894 22.5275 24.1204 22.4509 24.0345L16.6986 18.0203ZM7.856 16.198C7.03717 15.3416 6.47947 14.2506 6.2534 13.0629C6.02732 11.8751 6.14302 10.644 6.58586 9.52497C7.0287 8.40598 7.77881 7.44938 8.74139 6.77607C9.70398 6.10276 10.8358 5.74296 11.9939 5.74215C13.152 5.74133 14.2843 6.09954 15.2477 6.77149C16.2112 7.44345 16.9625 8.39899 17.4068 9.51735C17.8511 10.6357 17.9684 11.8667 17.7438 13.0548C17.5193 14.2428 16.963 15.3346 16.1452 16.1921L16.1397 16.198L16.1341 16.2026C15.0353 17.349 13.5463 17.9924 11.9941 17.9916C10.442 17.9907 8.95363 17.3456 7.856 16.198Z" fill="#8F8F8F"/>
</svg>
