<svg width="59" height="59" viewBox="0 0 59 59" fill="none" xmlns="http://www.w3.org/2000/svg">
<path d="M36.875 44.25V46.0938C36.875 48.0497 36.098 49.9256 34.7149 51.3087C33.3319 52.6917 31.456 53.4688 29.5 53.4688C27.544 53.4688 25.6682 52.6917 24.2851 51.3087C22.902 49.9256 22.125 48.0497 22.125 46.0938V44.25M49.2835 40.4968C46.3242 36.875 44.235 35.0313 44.235 25.0462C44.235 15.9023 39.5657 12.6447 35.7227 11.0625C35.2122 10.8528 34.7317 10.3711 34.5761 9.84678C33.902 7.55246 32.0121 5.53125 29.5 5.53125C26.9879 5.53125 25.0969 7.55361 24.4297 9.84908C24.2741 10.3792 23.7936 10.8528 23.2831 11.0625C19.4355 12.647 14.7708 15.8931 14.7708 25.0462C14.765 35.0313 12.6758 36.875 9.71658 40.4968C8.49049 41.9972 9.56447 44.25 11.709 44.25H47.3026C49.4356 44.25 50.5026 41.9903 49.2835 40.4968Z" stroke="#8F8F8F" stroke-width="1.5" stroke-linecap="round" stroke-linejoin="round"/>
</svg>
