<svg width="61" height="61" viewBox="0 0 61 61" fill="none" xmlns="http://www.w3.org/2000/svg">
<path d="M44.1722 53.0605C43.303 50.3587 41.3866 47.9696 38.7254 46.2667C36.0618 44.5637 32.7957 43.6411 29.4407 43.6411C26.0857 43.6411 22.8197 44.5637 20.156 46.2667C17.4949 47.9696 15.581 50.3587 14.7092 53.0605" stroke="#8F8F8F" stroke-width="1.5"/>
<path d="M29.4949 38.1792C33.706 38.1792 37.1199 34.7654 37.1199 30.5542C37.1199 26.343 33.706 22.9292 29.4949 22.9292C25.2837 22.9292 21.8699 26.343 21.8699 30.5542C21.8699 34.7654 25.2837 38.1792 29.4949 38.1792Z" stroke="#8F8F8F" stroke-width="1.5" stroke-linecap="round"/>
<path d="M43.8394 9.95044H14.9978C11.0156 9.95044 7.78735 13.1786 7.78735 17.1608V46.0024C7.78735 49.9846 11.0156 53.2128 14.9978 53.2128H43.8394C47.8216 53.2128 51.0498 49.9846 51.0498 46.0024V17.1608C51.0498 13.1786 47.8216 9.95044 43.8394 9.95044Z" stroke="#8F8F8F" stroke-width="1.5"/>
</svg>
