<svg width="35" height="35" viewBox="0 0 35 35" fill="none" xmlns="http://www.w3.org/2000/svg">
<path d="M23.5333 6.89489C21.2787 4.64176 20.1529 3.51447 18.6902 3.09593C17.2275 2.67593 15.6744 3.03468 12.5696 3.75218L10.7787 4.16489C8.1654 4.76718 6.85874 5.06905 5.96332 5.96301C5.06936 6.85843 4.76749 8.16509 4.1652 10.7784L3.75103 12.5693C3.03499 15.6755 2.67624 17.2272 3.09478 18.6899C3.51478 20.1526 4.64207 21.2784 6.8952 23.5316L9.56395 26.2003C13.4869 30.1247 15.4469 32.0832 17.8823 32.0832C20.3192 32.0832 22.2792 30.1232 26.2006 26.2018C30.1235 22.2788 32.0835 20.3188 32.0835 17.882C32.0835 15.9249 30.8177 14.2741 28.286 11.6666" stroke="#8F8F8F" stroke-width="2" stroke-linecap="round"/>
<path d="M12.5519 15.8651C13.1288 15.8651 13.6927 15.694 14.1723 15.3735C14.652 15.053 15.0258 14.5975 15.2466 14.0646C15.4673 13.5316 15.5251 12.9452 15.4125 12.3794C15.3 11.8136 15.0222 11.2939 14.6143 10.886C14.2064 10.4781 13.6867 10.2003 13.1209 10.0878C12.5552 9.97524 11.9687 10.033 11.4358 10.2538C10.9028 10.4745 10.4473 10.8483 10.1268 11.328C9.80631 11.8076 9.63525 12.3715 9.63525 12.9484M16.8321 26.979L18.2905 25.5207M27.0098 16.7999L21.875 21.9376" stroke="#8F8F8F" stroke-width="2" stroke-linecap="round"/>
</svg>
