<svg width="34" height="34" viewBox="0 0 34 34" fill="none" xmlns="http://www.w3.org/2000/svg">
<path d="M16.9997 14.1666C20.1293 14.1666 22.6663 11.6295 22.6663 8.49992C22.6663 5.3703 20.1293 2.83325 16.9997 2.83325C13.8701 2.83325 11.333 5.3703 11.333 8.49992C11.333 11.6295 13.8701 14.1666 16.9997 14.1666Z" stroke="#8F8F8F" stroke-width="2"/>
<path d="M28.3303 25.4998C28.3332 25.2675 28.3332 25.0309 28.3332 24.7915C28.3332 21.2711 23.2587 18.4165 16.9998 18.4165C10.741 18.4165 5.6665 21.2711 5.6665 24.7915C5.6665 28.3119 5.6665 31.1665 16.9998 31.1665C20.1604 31.1665 22.4398 30.9441 24.0832 30.5474" stroke="#8F8F8F" stroke-width="2" stroke-linecap="round"/>
</svg>
